<?xml version="1.0" encoding="utf-8"?><svg xmlns="http://www.w3.org/2000/svg" xmlns:xlink="http://www.w3.org/1999/xlink"><symbol viewBox="0 0 20 20" id="arrow-down" xmlns="http://www.w3.org/2000/svg"><desc>Created with Pixso.</desc><defs><clipPath id="aclip1_188"><rect id="aep:arrow-down" width="20.000000" height="20.000000" fill-opacity="0"/></clipPath></defs><rect id="aep:arrow-down" width="20.000000" height="20.000000" fill-opacity="0"/><g clip-path="url(#aclip1_188)"><path id="aVector" d="M16.24 6.65L10 12.74L3.75 6.65C3.64 6.54 3.49 6.48 3.33 6.48C3.17 6.48 3.02 6.54 2.91 6.65C2.86 6.71 2.82 6.77 2.79 6.84C2.76 6.91 2.74 6.98 2.74 7.06C2.74 7.13 2.76 7.21 2.79 7.28C2.82 7.35 2.86 7.41 2.91 7.47L9.56 13.95C9.68 14.06 9.83 14.12 10 14.12C10.16 14.12 10.31 14.06 10.43 13.95L17.08 7.47C17.13 7.41 17.18 7.35 17.2 7.28C17.23 7.21 17.25 7.13 17.25 7.06C17.25 6.98 17.23 6.91 17.2 6.84C17.18 6.77 17.13 6.7 17.08 6.65C16.97 6.54 16.82 6.48 16.66 6.48C16.5 6.48 16.35 6.54 16.24 6.65L16.24 6.65Z" fill-opacity="1.000000" fill-rule="nonzero"/></g></symbol><symbol viewBox="0 0 18 18" id="date" xmlns="http://www.w3.org/2000/svg"><desc>Created with Pixso.</desc><defs><clipPath id="bclip1_196"><rect id="bformkit:date" width="18.000000" height="18.000000" fill-opacity="0"/></clipPath></defs><rect id="bformkit:date" width="18.000000" height="18.000000" fill-opacity="0"/><g clip-path="url(#bclip1_196)"><path id="bVector" d="M16.31 18L1.68 18C0.75 18 0 17.24 0 16.31L0 2.81C0 1.87 0.75 1.12 1.68 1.12L16.31 1.12C17.24 1.12 18 1.87 18 2.81L18 16.31C18 17.24 17.24 18 16.31 18ZM1.68 2.25C1.37 2.25 1.12 2.49 1.12 2.81L1.12 16.31C1.12 16.62 1.37 16.87 1.68 16.87L16.31 16.87C16.62 16.87 16.87 16.62 16.87 16.31L16.87 2.81C16.87 2.49 16.62 2.25 16.31 2.25L1.68 2.25Z" fill-opacity="1.000000" fill-rule="nonzero"/><path id="bVector" d="M5.06 4.5C4.74 4.5 4.5 4.25 4.5 3.93L4.5 0.56C4.5 0.24 4.74 0 5.06 0C5.37 0 5.62 0.24 5.62 0.56L5.62 3.93C5.62 4.25 5.37 4.5 5.06 4.5ZM12.93 4.5C12.62 4.5 12.37 4.25 12.37 3.93L12.37 0.56C12.37 0.24 12.62 0 12.93 0C13.25 0 13.5 0.24 13.5 0.56L13.5 3.93C13.5 4.25 13.25 4.5 12.93 4.5ZM17.43 6.75L0.56 6.75C0.24 6.75 0 6.5 0 6.18C0 5.87 0.24 5.62 0.56 5.62L17.43 5.62C17.75 5.62 18 5.87 18 6.18C18 6.5 17.75 6.75 17.43 6.75Z" fill-opacity="1.000000" fill-rule="nonzero"/></g></symbol><symbol viewBox="0 0 50 50" id="guide" xmlns="http://www.w3.org/2000/svg"><defs><clipPath id="cclip1_37"><rect id="cFrame" width="36.000000" height="36.000000" transform="translate(7.000000 7.000000)" fill-opacity="0"/></clipPath></defs><rect id="cRectangle 12" rx="4.000000" width="50.000000" height="50.000000" fill-opacity="1.000000"/><rect id="cFrame" width="36.000000" height="36.000000" transform="translate(7.000000 7.000000)" fill-opacity="0"/><g clip-path="url(#cclip1_37)"><path id="cVector" d="M19.03 31.92L22.67 31.92L22.67 32.23L19.03 32.23L19.03 31.92ZM35.03 31.92L43 31.92L43 32.23L35.03 32.23L35.03 31.92ZM34.84 20.87C35.17 21.33 35.44 21.73 35.65 22.09C35.72 20.94 35.92 20.24 36.12 19.84L36.12 23C36.22 23.26 36.29 23.53 36.3 23.81C36.3 24.02 36.26 24.2 36.18 24.37C36.16 24.41 36.14 24.45 36.12 24.48L36.12 30.38C36.12 30.61 36.21 30.84 36.37 31C36.53 31.16 36.75 31.25 36.99 31.25C37.22 31.25 37.44 31.16 37.6 31C37.76 30.84 37.85 30.61 37.85 30.38L37.85 24.04L38.18 24.04L38.18 30.38C38.18 30.61 38.27 30.84 38.43 31C38.6 31.16 38.82 31.25 39.05 31.25C39.28 31.25 39.5 31.16 39.66 31C39.83 30.84 39.92 30.61 39.92 30.38L39.92 23.28C37.94 21.15 36.58 18.8 36.25 18.21C36.19 18.23 36.12 18.26 36.06 18.29C35.68 18.48 35.27 18.89 34.98 19.62C34.86 19.92 34.76 20.28 34.68 20.71C34.74 20.76 34.79 20.81 34.84 20.87ZM34.5 23.33L34.51 23.39L34.54 23.4C34.53 23.38 34.52 23.35 34.5 23.33Z" fill-opacity="1.000000" fill-rule="nonzero"/><path id="cVector" d="M37.43 19.69C38.04 20.61 38.89 21.79 39.92 22.93L39.92 19.84C39.96 19.93 40 20.02 40.04 20.14C40.24 20.69 40.41 21.59 40.41 23C40.41 23.38 40.4 23.81 40.37 24.28C40.36 24.35 40.37 24.43 40.4 24.5C40.43 24.57 40.47 24.64 40.52 24.7C40.57 24.75 40.64 24.8 40.71 24.83C40.78 24.86 40.85 24.87 40.93 24.87C41.07 24.87 41.21 24.82 41.32 24.72C41.42 24.62 41.48 24.49 41.49 24.34C41.52 23.89 41.53 23.44 41.53 23C41.53 20.87 41.19 19.7 40.73 18.99C40.5 18.64 40.23 18.42 39.98 18.29C39.73 18.17 39.51 18.14 39.39 18.14L39.38 18.14C39.38 18.14 39.38 18.14 39.38 18.14L36.66 18.14C36.66 18.14 36.65 18.14 36.65 18.14L36.65 18.14C36.6 18.14 36.55 18.15 36.5 18.15C36.65 18.43 36.97 18.99 37.43 19.69Z" fill-opacity="1.000000" fill-rule="nonzero"/><path id="cVector" d="M39.6 16.16C39.6 17.03 38.89 17.74 38.02 17.74C37.14 17.74 36.44 17.03 36.44 16.16C36.44 15.29 37.14 14.58 38.02 14.58C38.89 14.58 39.6 15.29 39.6 16.16Z" fill-opacity="1.000000" fill-rule="evenodd"/><path id="cVector" d="M11.76 25.87L11.76 40.02C11.76 40.84 12.43 41.51 13.26 41.51C14.08 41.51 14.75 40.84 14.75 40.02L14.75 29.1L15.31 29.1L15.31 40.02C15.31 40.84 15.98 41.51 16.81 41.51C17.63 41.51 18.3 40.84 18.3 40.02L18.3 21.88C18.38 22.04 18.46 22.22 18.52 22.39C18.86 23.33 19.15 24.89 19.15 27.31C19.15 27.97 19.12 28.71 19.08 29.51C19.05 30.04 19.45 30.5 19.99 30.53C20.24 30.55 20.5 30.46 20.69 30.29C20.88 30.12 20.99 29.88 21.01 29.62C21.06 28.78 21.08 28.01 21.08 27.31C21.08 23.65 20.49 21.63 19.7 20.42C19.3 19.82 18.84 19.43 18.41 19.21C17.99 19 17.62 18.96 17.41 18.96C17.39 18.96 17.38 18.95 17.37 18.95L16.8 18.95L16.5 21.28L15.32 19.86L16.14 18.95L13.92 18.95L14.74 19.86L13.56 21.28L13.26 18.95L12.7 18.95C12.66 18.95 12.62 18.96 12.59 18.96C12.16 18.97 11.72 18.99 11.29 19C11.17 19.01 11.05 19.01 10.93 19.01C10.24 19.02 9.65 18.92 9.37 18.75C9.22 18.66 9.15 18.58 9.07 18.45C9 18.31 8.93 18.09 8.93 17.72C8.93 17.32 9.02 16.74 9.24 16C9.32 15.75 9.29 15.49 9.17 15.26C9.05 15.03 8.85 14.86 8.6 14.79C8.59 14.79 8.59 14.79 8.58 14.78L8.58 12.26C8.84 11.84 9.52 11.08 10.7 11.78C13.89 13.69 14.08 9.24 14.08 9.24C14.08 9.24 12.41 10.17 11.2 9.08C10.18 8.16 8.94 8.68 8.58 8.87L8.58 8.48L8.14 8.48L8.14 14.76C7.96 14.8 7.8 14.88 7.67 15C7.54 15.11 7.44 15.26 7.39 15.43C7.13 16.31 7 17.05 7 17.72C6.99 18.33 7.11 18.88 7.36 19.36C7.74 20.07 8.4 20.5 9.04 20.7C9.68 20.91 10.32 20.94 10.93 20.94C10.97 20.94 11 20.94 11.03 20.94C11.28 20.94 11.53 20.93 11.76 20.92L11.76 25.87Z" fill-opacity="1.000000" fill-rule="nonzero"/><path id="cVector" d="M15.48 18.23C16.77 18.02 17.75 16.9 17.75 15.54C17.75 14.04 16.54 12.82 15.03 12.82C13.53 12.82 12.31 14.04 12.31 15.54C12.31 16.9 13.3 18.02 14.59 18.23C14.73 18.25 14.88 18.27 15.03 18.27C15.18 18.27 15.33 18.25 15.48 18.23ZM29.22 24.11C29.1 22.89 28.82 22.12 28.48 21.6C28.25 21.25 27.98 21.02 27.73 20.9C27.48 20.77 27.26 20.75 27.14 20.75L27.14 20.75C27.14 20.75 27.13 20.75 27.13 20.75L26.65 20.75C26.87 21.68 26.92 22.54 26.92 23.18C26.92 23.57 26.9 23.88 26.88 24.08L26.88 25.37L24.66 25.37L24.66 24.08C24.63 23.78 24.62 23.48 24.62 23.18C24.62 22.54 24.68 21.68 24.9 20.75L24.41 20.75C24.41 20.75 24.41 20.75 24.4 20.75L24.4 20.75C24.28 20.75 24.06 20.77 23.81 20.9C23.43 21.09 23.02 21.5 22.74 22.22C22.45 22.95 22.26 24.01 22.26 25.6C22.26 26.01 22.27 26.46 22.3 26.95C22.31 27.09 22.37 27.23 22.47 27.33C22.58 27.42 22.72 27.48 22.86 27.48C22.87 27.48 22.88 27.48 22.89 27.48C23.04 27.47 23.18 27.4 23.28 27.29C23.38 27.18 23.43 27.03 23.42 26.88C23.39 26.46 23.38 26.03 23.38 25.6C23.38 23.9 23.63 22.94 23.87 22.45L23.87 32.99C23.87 33.22 23.96 33.44 24.13 33.61C24.29 33.77 24.51 33.86 24.74 33.86C24.97 33.86 25.19 33.77 25.35 33.61C25.52 33.44 25.61 33.22 25.61 32.99L25.61 26.64L25.93 26.64L25.93 32.99C25.93 33.22 26.03 33.44 26.19 33.61C26.35 33.77 26.57 33.86 26.8 33.86C27.03 33.86 27.26 33.77 27.42 33.61C27.58 33.44 27.67 33.22 27.67 32.99L27.67 22.45C27.72 22.53 27.76 22.63 27.8 22.75C28 23.3 28.16 24.2 28.16 25.6C28.16 25.99 28.15 26.42 28.12 26.88C28.11 27.09 28.21 27.27 28.37 27.38C28.43 26.33 28.58 25.49 28.85 24.82C28.96 24.54 29.09 24.3 29.22 24.11Z" fill-opacity="1.000000" fill-rule="nonzero"/><path id="cVector" d="M24.83 23.18C24.83 23.51 24.84 23.77 24.86 23.96L26.68 23.96C26.7 23.77 26.71 23.51 26.71 23.18C26.71 22.54 26.65 21.68 26.43 20.75L25.12 20.75C24.89 21.68 24.83 22.54 24.83 23.18Z" fill-opacity="1.000000" fill-rule="nonzero"/><path id="cVector" d="M27.35 18.77C27.35 19.64 26.65 20.35 25.77 20.35C24.9 20.35 24.19 19.64 24.19 18.77C24.19 17.89 24.9 17.18 25.77 17.18C26.65 17.18 27.35 17.89 27.35 18.77Z" fill-opacity="1.000000" fill-rule="evenodd"/><path id="cVector" d="M26.17 24.7C26.17 24.92 25.99 25.1 25.77 25.1C25.55 25.1 25.37 24.92 25.37 24.7C25.37 24.49 25.55 24.31 25.77 24.31C25.99 24.31 26.17 24.49 26.17 24.7Z" fill-opacity="1.000000" fill-rule="evenodd"/><path id="cVector" d="M31.28 20.62L33.45 20.62C33.17 20.17 32.67 19.87 32.1 19.87C31.23 19.87 30.52 20.58 30.52 21.46C30.52 22.33 31.23 23.04 32.1 23.04C32.69 23.04 33.2 22.71 33.48 22.24L31.28 22.24L31.28 20.62L31.28 20.62Z" fill-opacity="1.000000" fill-rule="nonzero"/><path id="cVector" d="M33.06 21.43C33.06 21.67 32.87 21.86 32.63 21.86C32.39 21.86 32.2 21.67 32.2 21.43C32.2 21.19 32.39 21 32.63 21C32.87 21 33.06 21.19 33.06 21.43Z" fill-opacity="1.000000" fill-rule="evenodd"/><path id="cVector" d="M36.05 23.82C36.05 23.46 35.92 23.11 35.7 22.67C35.47 22.23 35.13 21.69 34.64 21.02C34.6 20.96 34.55 20.91 34.48 20.87C34.42 20.83 34.35 20.8 34.28 20.79C34.2 20.78 34.13 20.78 34.06 20.8C33.99 20.82 33.92 20.85 33.86 20.89C33.8 20.94 33.75 20.99 33.71 21.05C33.67 21.12 33.65 21.19 33.63 21.26C33.62 21.33 33.63 21.41 33.64 21.48C33.66 21.55 33.69 21.62 33.73 21.68C34.2 22.32 34.51 22.82 34.7 23.18C34.82 23.41 34.88 23.58 34.91 23.69C34.75 23.69 34.49 23.64 34.24 23.58C34.11 23.55 33.98 23.52 33.85 23.49C33.74 23.47 33.63 23.45 33.52 23.44C33.5 23.44 33.48 23.44 33.46 23.44L30.75 23.44C30.74 23.44 30.74 23.44 30.74 23.44L30.74 23.44C30.61 23.44 30.39 23.46 30.14 23.59C29.76 23.78 29.36 24.19 29.07 24.91C28.78 25.64 28.59 26.7 28.59 28.29C28.59 28.7 28.6 29.15 28.63 29.64C28.64 29.79 28.71 29.93 28.82 30.03C28.93 30.12 29.07 30.18 29.22 30.17C29.37 30.16 29.51 30.09 29.61 29.98C29.71 29.87 29.76 29.72 29.75 29.57C29.73 29.15 29.71 28.72 29.71 28.29C29.71 26.59 29.96 25.63 30.2 25.13L30.2 35.68C30.2 36.16 30.59 36.55 31.07 36.55C31.55 36.55 31.94 36.16 31.94 35.68L31.94 29.33L32.27 29.33L32.27 35.68C32.27 35.91 32.36 36.13 32.52 36.29C32.68 36.46 32.91 36.55 33.14 36.55C33.25 36.55 33.36 36.53 33.47 36.48C33.57 36.44 33.67 36.37 33.75 36.29C33.83 36.21 33.9 36.12 33.94 36.01C33.98 35.91 34.01 35.79 34.01 35.68L34.01 24.68C34.07 24.7 34.14 24.71 34.21 24.73C34.44 24.77 34.68 24.82 34.94 24.82C35.16 24.82 35.4 24.79 35.65 24.63C35.78 24.54 35.89 24.41 35.96 24.27C36.03 24.12 36.05 23.97 36.05 23.82Z" fill-opacity="1.000000" fill-rule="nonzero"/></g></symbol><symbol viewBox="0 0 137 72" id="logo" xmlns="http://www.w3.org/2000/svg"><desc>Created with Pixso.</desc><defs><clipPath id="dclip1_165"><rect id="dGroup 19 2" width="137.000000" height="72.000000" fill-opacity="0"/></clipPath></defs><rect id="dGroup 19 2" width="137.000000" height="72.000000" fill-opacity="0"/><g clip-path="url(#dclip1_165)"><path id="dVector" d="M4.96 61.5L8.1 61.5C8.59 61.5 8.84 61.46 9.07 61.37C9.6 61.15 10 60.68 10 60.03C10 59.38 9.61 58.9 9.07 58.67C8.84 58.58 8.6 58.53 8.09 58.53L4.96 58.53L4.96 61.5ZM4.96 68L3.09 68L3.09 56.79L8.32 56.79C9.19 56.79 9.76 56.94 10.25 57.22C11.21 57.75 11.85 58.75 11.85 60.02C11.85 61.25 11.21 62.28 10.24 62.81C9.75 63.08 9.19 63.24 8.32 63.24L4.96 63.24L4.96 68ZM18.86 56.79L20.95 56.79L24 62.53L26.95 56.79L29.04 56.79L24.73 64.89C24.2 65.89 23.86 66.49 23.36 67.01C22.78 67.6 22.07 68.02 21.14 68.02C20.47 68.02 19.82 67.81 19.26 67.42L20.22 65.83C20.5 66.03 20.82 66.14 21.16 66.14C21.82 66.14 22.22 65.75 22.72 64.84C22.73 64.81 22.98 64.36 22.98 64.36L18.86 56.79ZM36.62 56.79L37.63 56.79L42.48 62.63L47.33 56.79L48.34 56.79L48.34 68L46.47 68L46.47 60.35L42.48 65.21L38.49 60.35L38.49 68L36.62 68L36.62 56.79ZM56.32 56.78L65.79 56.78L65.79 58.53L61.98 58.53L61.98 68L60.11 68L60.11 58.53L56.32 58.53L56.32 56.78ZM81.56 68L81.56 60.17L74.77 68L73.76 68L73.76 56.79L75.63 56.79L75.63 64.6C77.89 62 80.15 59.39 82.42 56.79L83.43 56.79L83.43 68L81.56 68ZM100.77 64.67C100.77 65.98 100.11 67.02 99.11 67.57C98.62 67.84 98.03 68 97.16 68L92.03 68L92.03 56.79L99.75 56.79L99.75 58.53L93.89 58.53L93.89 61.35L97.16 61.35C98.03 61.35 98.62 61.5 99.1 61.78C100.11 62.32 100.77 63.39 100.77 64.67ZM98.92 64.67C98.92 63.96 98.5 63.46 97.93 63.21C97.7 63.12 97.44 63.07 96.94 63.07L93.89 63.07L93.89 66.26L96.93 66.26C97.45 66.26 97.71 66.21 97.93 66.11C98.5 65.88 98.92 65.36 98.92 64.67ZM108.85 56.79L116.5 56.79L116.5 58.53L110.72 58.53L110.72 60.99L115.2 60.99L115.2 62.71L110.72 62.71L110.72 66.26L116.5 66.26L116.5 68L108.85 68L108.85 56.79ZM124.09 56.78L133.56 56.78L133.56 58.53L129.76 58.53L129.76 68L127.88 68L127.88 58.53L124.09 58.53L124.09 56.78Z" fill-opacity="1.000000" fill-rule="nonzero"/><mask id="dmask1_168" mask-type="alpha" maskUnits="userSpaceOnUse" x="0.000000" y="0.000000" width="137.000000" height="48.000000"><path id="dVector" d="M0 0L137 0L137 48L0 48L0 0Z" fill-opacity="1.000000" fill-rule="evenodd"/></mask><g mask="url(#dmask1_168)"><path id="dVector" d="M0.15 27.91C0.39 27.85 24.81 22.03 43.19 13.88C45.24 12.97 46.9 12.43 48.29 12.18C46.73 13.75 37.54 17.68 44.88 18.37C51.61 19.01 40.52 27.01 35.43 29.91C22.05 34.15 13.36 35.82 13.21 35.85L13.39 36.83C13.44 36.82 14.22 36.67 15.62 36.36C23 34.73 47.76 28.62 76.17 14.65C80.15 12.69 83.4 11.6 86.14 11.2C85.34 15.31 76.05 24.41 90.88 26.71C104.41 28.81 77.28 34.13 67.17 36.84C65.71 37.23 64.6 37.57 64.03 37.83C59.56 39.88 111.46 38.04 134.67 37.95C135.43 37.97 136.2 37.99 137 37.99L137 36.99C116.27 36.99 108.92 27.51 103.02 19.89C96.89 11.98 92.05 5.72 75.73 13.75C71.93 15.61 68.1 17.39 64.23 19.09C60.8 17.87 58.73 16.12 56.91 14.58C53.53 11.71 51.09 9.65 42.93 13.27C24.6 21.4 0.24 27.2 0 27.26L0.15 27.91Z" fill-opacity="1.000000" fill-rule="nonzero"/></g></g></symbol><symbol viewBox="0 0 50 50" id="loyalty" xmlns="http://www.w3.org/2000/svg"><desc>Created with Pixso.</desc><defs><clipPath id="eclip1_65"><rect id="eFrame" width="36.000000" height="36.000000" transform="translate(7.000000 7.000000)" fill-opacity="0"/></clipPath></defs><rect id="eRectangle 12" rx="4.000000" width="50.000000" height="50.000000" fill-opacity="1.000000"/><rect id="eFrame" width="36.000000" height="36.000000" transform="translate(7.000000 7.000000)" fill-opacity="0"/><g clip-path="url(#eclip1_65)"><path id="eVector" d="M33.3 16.44L26.05 11.83L26.05 8.05C26.05 7.47 25.58 7 25 7C24.41 7 23.94 7.47 23.94 8.05L23.94 11.83L16.69 16.44C16.54 16.54 16.42 16.67 16.34 16.82C16.25 16.98 16.21 17.15 16.21 17.33L16.21 41.94C16.21 42.52 16.68 43 17.26 43L32.73 43C33.31 43 33.78 42.52 33.78 41.94L33.78 17.33C33.78 16.97 33.6 16.63 33.3 16.44ZM25 24.29C23.06 24.29 21.48 22.71 21.48 20.78C21.48 19.2 22.52 17.87 23.94 17.42L23.94 18.32C23.94 18.9 24.41 19.37 25 19.37C25.58 19.37 26.05 18.9 26.05 18.32L26.05 17.42C27.47 17.87 28.51 19.2 28.51 20.78C28.51 22.71 26.93 24.29 25 24.29Z" fill-opacity="1.000000" fill-rule="nonzero"/></g></symbol><symbol viewBox="0 0 32 32" id="pinterest" xmlns="http://www.w3.org/2000/svg"><desc>Created with Pixso.</desc><defs><clipPath id="fclip1_148"><rect id="fmdi:pinterest" width="32.000000" height="32.000000" fill-opacity="0"/></clipPath></defs><rect id="fmdi:pinterest" width="32.000000" height="32.000000" fill-opacity="0"/><g clip-path="url(#fclip1_148)"><path id="fVector" d="M12.05 28.71C13.33 29.1 14.62 29.33 16 29.33C19.53 29.33 22.92 27.92 25.42 25.42C27.92 22.92 29.33 19.53 29.33 15.99C29.33 14.24 28.98 12.51 28.31 10.89C27.64 9.27 26.66 7.8 25.42 6.57C24.19 5.33 22.72 4.35 21.1 3.68C19.48 3.01 17.75 2.66 16 2.66C14.24 2.66 12.51 3.01 10.89 3.68C9.27 4.35 7.81 5.33 6.57 6.57C4.07 9.07 2.66 12.46 2.66 15.99C2.66 21.66 6.22 26.53 11.25 28.45C11.13 27.41 11.01 25.69 11.25 24.5L12.78 17.91C12.78 17.91 12.4 17.14 12.4 15.91C12.4 14.07 13.54 12.7 14.85 12.7C16 12.7 16.53 13.54 16.53 14.62C16.53 15.77 15.77 17.41 15.38 18.98C15.16 20.29 16.08 21.43 17.41 21.43C19.78 21.43 21.62 18.9 21.62 15.33C21.62 12.13 19.33 9.94 16.04 9.94C12.28 9.94 10.06 12.74 10.06 15.69C10.06 16.83 10.44 17.99 11.05 18.75C11.17 18.83 11.17 18.94 11.13 19.14L10.74 20.59C10.74 20.82 10.6 20.9 10.37 20.74C8.66 19.99 7.67 17.57 7.67 15.61C7.67 11.39 10.66 7.57 16.42 7.57C21.01 7.57 24.58 10.86 24.58 15.23C24.58 19.82 21.74 23.5 17.68 23.5C16.38 23.5 15.12 22.81 14.66 21.99L13.77 25.15C13.46 26.3 12.62 27.83 12.05 28.75L12.05 28.71Z" fill-opacity="1.000000" fill-rule="nonzero"/></g></symbol><symbol viewBox="0 0 50 50" id="play" xmlns="http://www.w3.org/2000/svg"><desc>Created with Pixso.</desc><defs><clipPath id="gclip1_19"><rect id="gfluent:play-12-filled" width="22.000000" height="22.000000" transform="translate(14.000000 14.000000)" fill-opacity="0"/></clipPath></defs><rect id="gRectangle 6" rx="25.000000" width="50.000000" height="50.000000" fill-opacity="0.600000"/><rect id="gfluent:play-12-filled" width="22.000000" height="22.000000" transform="translate(14.000000 14.000000)" fill-opacity="0"/><g clip-path="url(#gclip1_19)"><path id="gVector" d="M22.24 17.65C21.96 17.49 21.64 17.41 21.32 17.41C21 17.41 20.69 17.5 20.41 17.66C20.13 17.82 19.9 18.05 19.74 18.33C19.58 18.61 19.5 18.92 19.5 19.24L19.5 30.75C19.5 31.07 19.58 31.39 19.74 31.66C19.9 31.94 20.13 32.17 20.41 32.34C20.69 32.5 21 32.58 21.32 32.58C21.64 32.58 21.96 32.5 22.24 32.34L32.31 26.59C32.59 26.43 32.82 26.19 32.98 25.91C33.14 25.64 33.23 25.32 33.23 25C33.23 24.67 33.14 24.35 32.98 24.08C32.82 23.8 32.59 23.56 32.31 23.4L22.24 17.65Z" fill-opacity="1.000000" fill-rule="nonzero"/></g></symbol><symbol viewBox="0 0 50 50" id="safety" xmlns="http://www.w3.org/2000/svg"><desc>Created with Pixso.</desc><defs><clipPath id="hclip1_56"><rect id="hFrame" width="36.000000" height="36.000000" transform="translate(6.000000 7.000000)" fill-opacity="0"/></clipPath></defs><rect id="hRectangle 12" rx="4.000000" width="50.000000" height="50.000000" fill-opacity="1.000000"/><rect id="hFrame" width="36.000000" height="36.000000" transform="translate(6.000000 7.000000)" fill-opacity="0"/><g clip-path="url(#hclip1_56)"><path id="hVector" d="M38.4 14.06C38.33 13.74 38.21 13.44 38.05 13.17C38.05 13.17 34.15 7 23.99 7C13.85 7 9.94 13.17 9.94 13.17C9.8 13.39 9.64 13.79 9.59 14.06C9.59 14.06 8.83 18.06 10.08 23.8C11.23 29.07 14.41 36.63 23.05 42.69C23.33 42.89 23.66 42.99 24 42.99C24.33 42.99 24.66 42.89 24.94 42.69C33.57 36.63 36.75 29.07 37.9 23.8C39.16 18.06 38.4 14.06 38.4 14.06ZM34.58 23.07C34.54 23.22 34.5 23.38 34.47 23.54L23.99 23.54L23.99 39.17C17.26 34.06 14.57 27.97 13.52 23.54L23.99 23.54L23.99 10.4C31.22 10.4 34.44 14.04 35.08 14.87C35.18 15.63 35.51 18.79 34.58 23.07Z" fill-opacity="1.000000" fill-rule="nonzero"/></g></symbol><symbol viewBox="0 0 32 32" id="skype" xmlns="http://www.w3.org/2000/svg"><desc>Created with Pixso.</desc><defs><clipPath id="iclip1_150"><rect id="imdi:skype" width="32.000000" height="32.000000" fill-opacity="0"/></clipPath></defs><rect id="imdi:skype" width="32.000000" height="32.000000" fill-opacity="0"/><g clip-path="url(#iclip1_150)"><path id="iVector" d="M24 8C26.76 10.72 27.8 14.52 27.14 18.06C27.69 19.02 28 20.14 28 21.33C28 23.1 27.29 24.79 26.04 26.04C24.79 27.29 23.1 28 21.33 28C20.14 28 19.02 27.69 18.06 27.14C14.52 27.8 10.72 26.76 8 24C5.24 21.28 4.19 17.48 4.85 13.93C4.3 12.97 4 11.85 4 10.66C4 8.89 4.7 7.2 5.95 5.95C7.2 4.7 8.89 4 10.66 4C11.85 4 12.97 4.3 13.93 4.85C17.48 4.19 21.28 5.23 24 8ZM16.05 22.87C19.87 22.87 21.78 21.04 21.78 18.56C21.78 16.97 21.04 15.28 18.14 14.62L15.49 14.04C14.48 13.81 13.33 13.5 13.33 12.56C13.33 11.6 14.13 10.93 15.6 10.93C18.57 10.93 18.29 12.97 19.77 12.97C20.54 12.97 21.21 12.52 21.21 11.73C21.21 9.9 18.29 8.53 15.81 8.53C13.13 8.53 10.26 9.67 10.26 12.72C10.26 14.18 10.78 15.74 13.66 16.46L17.25 17.37C18.33 17.63 18.6 18.24 18.6 18.79C18.6 19.7 17.69 20.6 16.05 20.6C12.84 20.6 13.28 18.13 11.56 18.13C10.78 18.13 10.22 18.66 10.22 19.42C10.22 20.9 12 22.87 16.05 22.87Z" fill-opacity="1.000000" fill-rule="nonzero"/></g></symbol><symbol viewBox="0 0 24 24" id="star" xmlns="http://www.w3.org/2000/svg"><desc>Created with Pixso.</desc><defs><clipPath id="jclip7_257"><rect id="jic:round-star" width="24.000000" height="24.000000" fill-opacity="0"/></clipPath></defs><rect id="jic:round-star" width="24.000000" height="24.000000" fill-opacity="0"/><g clip-path="url(#jclip7_257)"><path id="jVector" d="M12 17.27L16.15 19.78C16.91 20.24 17.84 19.56 17.64 18.7L16.54 13.98L20.2 10.8C20.88 10.22 20.52 9.12 19.64 9.05L14.81 8.64L12.92 4.18C12.58 3.37 11.42 3.37 11.08 4.18L9.19 8.63L4.36 9.04C3.48 9.11 3.12 10.21 3.79 10.79L7.46 13.97L6.36 18.69C6.16 19.54 7.09 20.23 7.85 19.77L12 17.27Z" fill-opacity="1.000000" fill-rule="nonzero"/></g></symbol><symbol viewBox="0 0 32 32" id="telegram" xmlns="http://www.w3.org/2000/svg"><desc>Created with Pixso.</desc><defs><clipPath id="kclip1_144"><rect id="kic:baseline-telegram" width="32.000000" height="32.000000" fill-opacity="0"/></clipPath></defs><rect id="kic:baseline-telegram" width="32.000000" height="32.000000" fill-opacity="0"/><g clip-path="url(#kclip1_144)"><path id="kVector" d="M16 2.66C8.63 2.66 2.66 8.63 2.66 15.99C2.66 23.35 8.63 29.33 16 29.33C23.36 29.33 29.33 23.35 29.33 15.99C29.33 8.63 23.36 2.66 16 2.66ZM22.18 11.73C21.98 13.83 21.12 18.95 20.68 21.31C20.49 22.31 20.12 22.65 19.77 22.69C19 22.75 18.41 22.18 17.66 21.69C16.49 20.91 15.82 20.43 14.69 19.69C13.37 18.82 14.22 18.34 14.98 17.57C15.18 17.37 18.6 14.26 18.66 13.98C18.67 13.94 18.67 13.9 18.66 13.85C18.65 13.81 18.62 13.77 18.6 13.74C18.52 13.67 18.41 13.7 18.32 13.71C18.2 13.74 16.33 14.98 12.69 17.43C12.16 17.79 11.68 17.98 11.25 17.97C10.77 17.95 9.86 17.7 9.18 17.47C8.34 17.21 7.69 17.06 7.74 16.59C7.77 16.35 8.1 16.11 8.73 15.86C12.62 14.17 15.21 13.05 16.5 12.51C20.21 10.97 20.97 10.7 21.48 10.7C21.58 10.7 21.84 10.73 22 10.86C22.13 10.97 22.17 11.11 22.18 11.22C22.17 11.3 22.2 11.54 22.18 11.73Z" fill-opacity="1.000000" fill-rule="nonzero"/></g></symbol><symbol viewBox="0 0 32 32" id="vk" xmlns="http://www.w3.org/2000/svg"><desc>Created with Pixso.</desc><defs><clipPath id="lclip1_146"><rect id="lentypo-social:vk-with-circle" width="32.000000" height="32.000000" fill-opacity="0"/></clipPath></defs><rect id="lentypo-social:vk-with-circle" width="32.000000" height="32.000000" fill-opacity="0"/><g clip-path="url(#lclip1_146)"><path id="lVector" d="M16.36 3C8.98 3 3 8.98 3 16.36C3 23.73 8.98 29.72 16.36 29.72C23.73 29.72 29.72 23.73 29.72 16.36C29.72 8.98 23.73 3 16.36 3ZM21.49 18.07C21.49 18.07 22.67 19.23 22.97 19.78C22.97 19.79 22.98 19.8 22.98 19.8C23.1 20 23.13 20.16 23.07 20.27C22.97 20.46 22.64 20.56 22.52 20.57L20.44 20.57C20.29 20.57 19.99 20.53 19.62 20.28C19.34 20.08 19.06 19.75 18.79 19.44C18.38 18.97 18.03 18.56 17.68 18.56C17.63 18.56 17.59 18.57 17.55 18.58C17.28 18.67 16.94 19.05 16.94 20.07C16.94 20.38 16.69 20.57 16.51 20.57L15.55 20.57C15.23 20.57 13.53 20.45 12.03 18.87C10.19 16.93 8.53 13.03 8.52 13C8.41 12.74 8.63 12.61 8.87 12.61L10.97 12.61C11.25 12.61 11.35 12.78 11.41 12.93C11.49 13.11 11.76 13.81 12.21 14.6C12.95 15.89 13.4 16.41 13.76 16.41C13.82 16.41 13.89 16.4 13.95 16.36C14.42 16.1 14.33 14.42 14.31 14.08C14.31 14.01 14.31 13.33 14.07 13C13.9 12.76 13.6 12.67 13.43 12.64C13.5 12.54 13.59 12.46 13.7 12.4C14.03 12.24 14.61 12.22 15.18 12.22L15.51 12.22C16.13 12.22 16.29 12.26 16.52 12.32C16.98 12.43 16.99 12.73 16.95 13.74C16.94 14.03 16.92 14.36 16.92 14.74C16.92 14.82 16.92 14.91 16.92 15.01C16.91 15.52 16.89 16.11 17.25 16.35C17.3 16.38 17.36 16.4 17.41 16.4C17.54 16.4 17.92 16.4 18.95 14.63C19.27 14.05 19.55 13.46 19.78 12.85C19.8 12.82 19.86 12.7 19.94 12.66C19.99 12.63 20.05 12.62 20.11 12.62L22.59 12.62C22.86 12.62 23.04 12.66 23.08 12.77C23.14 12.93 23.07 13.44 21.93 14.97L21.43 15.64C20.4 16.98 20.4 17.05 21.49 18.07Z" fill-opacity="1.000000" fill-rule="nonzero"/></g></symbol></svg>