<?xml version="1.0" encoding="utf-8"?><svg viewBox="0 0 137 72" xmlns="http://www.w3.org/2000/svg" xmlns:xlink="http://www.w3.org/1999/xlink"><style>:root>svg{display:none}:root>svg:target{display:block}</style><svg fill="none" viewBox="0 0 20 20" id="arrow-down" xmlns="http://www.w3.org/2000/svg"><defs><clipPath id="aa"><path fill="#fff" fill-opacity="0" d="M0 0h20v20H0z"/></clipPath></defs><path fill="none" d="M0 0h20v20H0z"/><g clip-path="url(#aa)"><path d="M16.24 6.65 10 12.74 3.75 6.65a.59.59 0 0 0-.42-.17.59.59 0 0 0-.42.17.76.76 0 0 0-.12.19c-.03.07-.05.14-.05.22 0 .07.02.15.05.22.03.07.07.13.12.19l6.65 6.48a.637.637 0 0 0 .87 0l6.65-6.48c.05-.06.1-.12.12-.19.03-.07.05-.15.05-.22 0-.08-.02-.15-.05-.22a.474.474 0 0 0-.12-.19.59.59 0 0 0-.42-.17.59.59 0 0 0-.42.17Z" fill="#FDFDFD"/></g></svg><svg fill="none" viewBox="0 0 18 18" id="date" xmlns="http://www.w3.org/2000/svg"><defs><clipPath id="ba"><path fill="#fff" fill-opacity="0" d="M0 0h18v18H0z"/></clipPath></defs><path fill="none" d="M0 0h18v18H0z"/><g clip-path="url(#ba)" fill="#FDFDFD"><path d="M16.31 18H1.68C.75 18 0 17.24 0 16.31V2.81c0-.94.75-1.69 1.68-1.69h14.63c.93 0 1.69.75 1.69 1.69v13.5c0 .93-.76 1.69-1.69 1.69ZM1.68 2.25c-.31 0-.56.24-.56.56v13.5c0 .31.25.56.56.56h14.63c.31 0 .56-.25.56-.56V2.81c0-.32-.25-.56-.56-.56H1.68Z"/><path d="M5.06 4.5c-.32 0-.56-.25-.56-.57V.56c0-.32.24-.56.56-.56.31 0 .56.24.56.56v3.37c0 .32-.25.57-.56.57Zm7.87 0c-.31 0-.56-.25-.56-.57V.56c0-.32.25-.56.56-.56.32 0 .57.24.57.56v3.37c0 .32-.25.57-.57.57Zm4.5 2.25H.56C.24 6.75 0 6.5 0 6.18c0-.31.24-.56.56-.56h16.87c.32 0 .57.25.57.56 0 .32-.25.57-.57.57Z"/></g></svg><svg fill="none" viewBox="0 0 50 50" id="guide" xmlns="http://www.w3.org/2000/svg"><defs><clipPath id="ca"><path transform="translate(7 7)" fill="#fff" fill-opacity="0" d="M0 0h36v36H0z"/></clipPath></defs><rect rx="4" width="50" height="50" fill="#E5EEEB"/><path fill="none" d="M7 7h36v36H7z"/><g clip-path="url(#ca)" fill="#45766A"><path d="M19.03 31.92h3.64v.31h-3.64v-.31Zm16 0H43v.31h-7.97v-.31Zm-.19-11.05c.33.46.6.86.81 1.22.07-1.15.27-1.85.47-2.25V23c.1.26.17.53.18.81 0 .21-.04.39-.12.56-.02.04-.04.08-.06.11v5.9c0 .23.09.46.25.62.16.16.38.25.62.25.23 0 .45-.09.61-.25.16-.16.25-.39.25-.62v-6.34h.33v6.34c0 .23.09.46.25.62.17.16.39.25.62.25.23 0 .45-.09.61-.25.17-.16.26-.39.26-.62v-7.1c-1.98-2.13-3.34-4.48-3.67-5.07-.06.02-.13.05-.19.08-.38.19-.79.6-1.08 1.33-.12.3-.22.66-.3 1.09.06.05.11.1.16.16Zm-.34 2.46.01.06.03.01c-.01-.02-.02-.05-.04-.07Z"/><path d="M37.43 19.69c.61.92 1.46 2.1 2.49 3.24v-3.09c.04.09.08.18.12.3.2.55.37 1.45.37 2.86 0 .38-.01.81-.04 1.28-.01.07 0 .15.03.22s.07.14.12.2a.538.538 0 0 0 .41.17c.14 0 .28-.05.39-.15.1-.1.16-.23.17-.38.03-.45.04-.9.04-1.34 0-2.13-.34-3.3-.8-4.01-.23-.35-.5-.57-.75-.7a1.43 1.43 0 0 0-.59-.15H36.65c-.05 0-.1.01-.15.01.15.28.47.84.93 1.54Z"/><path d="M39.6 16.16c0 .87-.71 1.58-1.58 1.58-.88 0-1.58-.71-1.58-1.58 0-.87.7-1.58 1.58-1.58.87 0 1.58.71 1.58 1.58Z" fill-rule="evenodd"/><path d="M11.76 25.87v14.15a1.496 1.496 0 0 0 2.99 0V29.1h.56v10.92a1.496 1.496 0 0 0 2.99 0V21.88c.08.16.16.34.22.51.34.94.63 2.5.63 4.92 0 .66-.03 1.4-.07 2.2-.03.53.37.99.91 1.02a.954.954 0 0 0 1.02-.91c.05-.84.07-1.61.07-2.31 0-3.66-.59-5.68-1.38-6.89-.4-.6-.86-.99-1.29-1.21-.42-.21-.79-.25-1-.25-.02 0-.03-.01-.04-.01h-.57l-.3 2.33-1.18-1.42.82-.91h-2.22l.82.91-1.18 1.42-.3-2.33h-.56c-.04 0-.08.01-.11.01-.43.01-.87.03-1.3.04-.12.01-.24.01-.36.01-.69.01-1.28-.09-1.56-.26a.785.785 0 0 1-.3-.3c-.07-.14-.14-.36-.14-.73 0-.4.09-.98.31-1.72.08-.25.05-.51-.07-.74a.921.921 0 0 0-.57-.47c-.01 0-.01 0-.02-.01v-2.52c.26-.42.94-1.18 2.12-.48 3.19 1.91 3.38-2.54 3.38-2.54s-1.67.93-2.88-.16c-1.02-.92-2.26-.4-2.62-.21v-.39h-.44v6.28c-.18.04-.34.12-.47.24-.13.11-.23.26-.28.43-.26.88-.39 1.62-.39 2.29-.01.61.11 1.16.36 1.64.38.71 1.04 1.14 1.68 1.34.64.21 1.28.24 1.89.24h.1c.25 0 .5-.01.73-.02v4.95Z"/><path d="M15.48 18.23a2.714 2.714 0 0 0 2.27-2.69c0-1.5-1.21-2.72-2.72-2.72a2.723 2.723 0 0 0-.44 5.41c.14.02.29.04.44.04.15 0 .3-.02.45-.04Zm13.74 5.88c-.12-1.22-.4-1.99-.74-2.51-.23-.35-.5-.58-.75-.7-.25-.13-.47-.15-.59-.15h-.49c.22.93.27 1.79.27 2.43 0 .39-.02.7-.04.9v1.29h-2.22v-1.29a10.696 10.696 0 0 1 .24-3.33h-.5c-.12 0-.34.02-.59.15-.38.19-.79.6-1.07 1.32-.29.73-.48 1.79-.48 3.38 0 .41.01.86.04 1.35.01.14.07.28.17.38.11.09.25.15.39.15h.03c.15-.01.29-.08.39-.19.1-.11.15-.26.14-.41-.03-.42-.04-.85-.04-1.28 0-1.7.25-2.66.49-3.15v10.54a.87.87 0 0 0 1.74 0v-6.35h.32v6.35c0 .23.1.45.26.62.16.16.38.25.61.25.23 0 .46-.09.62-.25.16-.17.25-.39.25-.62V22.45c.05.08.09.18.13.3.2.55.36 1.45.36 2.85 0 .39-.01.82-.04 1.28-.01.21.09.39.25.5.06-1.05.21-1.89.48-2.56.11-.28.24-.52.37-.71Z"/><path d="M24.83 23.18c0 .33.01.59.03.78h1.82a10.696 10.696 0 0 0-.25-3.21h-1.31c-.23.93-.29 1.79-.29 2.43Z"/><path d="M27.35 18.77c0 .87-.7 1.58-1.58 1.58a1.586 1.586 0 0 1 0-3.17c.88 0 1.58.71 1.58 1.59ZM26.17 24.7c0 .22-.18.4-.4.4-.22 0-.4-.18-.4-.4a.4.4 0 0 1 .4-.39c.22 0 .4.18.4.39Z" fill-rule="evenodd"/><path d="M31.28 20.62h2.17c-.28-.45-.78-.75-1.35-.75a1.586 1.586 0 0 0 0 3.17c.59 0 1.1-.33 1.38-.8h-2.2v-1.62Z"/><path d="M33.06 21.43c0 .24-.19.43-.43.43s-.43-.19-.43-.43.19-.43.43-.43.43.19.43.43Z" fill-rule="evenodd"/><path d="M36.05 23.82c0-.36-.13-.71-.35-1.15-.23-.44-.57-.98-1.06-1.65a.463.463 0 0 0-.16-.15.496.496 0 0 0-.2-.08.537.537 0 0 0-.22.01c-.07.02-.14.05-.2.09-.06.05-.11.1-.15.16-.04.07-.06.14-.08.21-.01.07 0 .15.01.22.02.07.05.14.09.2.47.64.78 1.14.97 1.5.12.23.18.4.21.51-.16 0-.42-.05-.67-.11l-.39-.09c-.11-.02-.22-.04-.33-.05h-2.78c-.13 0-.35.02-.6.15-.38.19-.78.6-1.07 1.32-.29.73-.48 1.79-.48 3.38 0 .41.01.86.04 1.35.01.15.08.29.19.39.11.09.25.15.4.14.15-.01.29-.08.39-.19.1-.11.15-.26.14-.41-.02-.42-.04-.85-.04-1.28 0-1.7.25-2.66.49-3.16v10.55a.87.87 0 0 0 1.74 0v-6.35h.33v6.35c0 .23.09.45.25.61a.854.854 0 0 0 1.23 0c.08-.08.15-.17.19-.28.04-.1.07-.22.07-.33v-11c.06.02.13.03.2.05.23.04.47.09.73.09.22 0 .46-.03.71-.19.13-.09.24-.22.31-.36.07-.15.09-.3.09-.45Z"/></g></svg><svg fill="none" viewBox="0 0 137 72" id="logo" xmlns="http://www.w3.org/2000/svg"><defs><clipPath id="da"><path fill="#fff" fill-opacity="0" d="M0 0h137v72H0z"/></clipPath></defs><path fill="none" d="M0 0h137v72H0z"/><g clip-path="url(#da)"><path d="M4.96 61.5H8.1c.49 0 .74-.04.97-.13.53-.22.93-.69.93-1.34 0-.65-.39-1.13-.93-1.36-.23-.09-.47-.14-.98-.14H4.96v2.97Zm0 6.5H3.09V56.79h5.23c.87 0 1.44.15 1.93.43.96.53 1.6 1.53 1.6 2.8 0 1.23-.64 2.26-1.61 2.79-.49.27-1.05.43-1.92.43H4.96V68Zm13.9-11.21h2.09L24 62.53l2.95-5.74h2.09l-4.31 8.1c-.53 1-.87 1.6-1.37 2.12-.58.59-1.29 1.01-2.22 1.01-.67 0-1.32-.21-1.88-.6l.96-1.59c.28.2.6.31.94.31.66 0 1.06-.39 1.56-1.3.01-.03.26-.48.26-.48l-4.12-7.57Zm17.76 0h1.01l4.85 5.84 4.85-5.84h1.01V68h-1.87v-7.65l-3.99 4.86-3.99-4.86V68h-1.87V56.79Zm19.7-.01h9.47v1.75h-3.81V68h-1.87v-9.47h-3.79v-1.75ZM81.56 68v-7.83L74.77 68h-1.01V56.79h1.87v7.81c2.26-2.6 4.52-5.21 6.79-7.81h1.01V68h-1.87Zm19.21-3.33c0 1.31-.66 2.35-1.66 2.9-.49.27-1.08.43-1.95.43h-5.13V56.79h7.72v1.74h-5.86v2.82h3.27c.87 0 1.46.15 1.94.43 1.01.54 1.67 1.61 1.67 2.89Zm-1.85 0c0-.71-.42-1.21-.99-1.46-.23-.09-.49-.14-.99-.14h-3.05v3.19h3.04c.52 0 .78-.05 1-.15.57-.23.99-.75.99-1.44Zm9.93-7.88h7.65v1.74h-5.78v2.46h4.48v1.72h-4.48v3.55h5.78V68h-7.65V56.79Zm15.24-.01h9.47v1.75h-3.8V68h-1.88v-9.47h-3.79v-1.75Z" fill="#FFF"/><mask id="db" mask-type="alpha" maskUnits="userSpaceOnUse" x="0" y="0" width="137" height="48"><path d="M0 0h137v48H0V0Z" fill="#000" fill-rule="evenodd"/></mask><g mask="url(#db)"><path d="M.15 27.91c.24-.06 24.66-5.88 43.04-14.03 2.05-.91 3.71-1.45 5.1-1.7-1.56 1.57-10.75 5.5-3.41 6.19 6.73.64-4.36 8.64-9.45 11.54-13.38 4.24-22.07 5.91-22.22 5.94l.18.98c.05-.01.83-.16 2.23-.47 7.38-1.63 32.14-7.74 60.55-21.71 3.98-1.96 7.23-3.05 9.97-3.45-.8 4.11-10.09 13.21 4.74 15.51 13.53 2.1-13.6 7.42-23.71 10.13-1.46.39-2.57.73-3.14.99-4.47 2.05 47.43.21 70.64.12.76.02 1.53.04 2.33.04v-1c-20.73 0-28.08-9.48-33.98-17.1-6.13-7.91-10.97-14.17-27.29-6.14-3.8 1.86-7.63 3.64-11.5 5.34-3.43-1.22-5.5-2.97-7.32-4.51-3.38-2.87-5.82-4.93-13.98-1.31C24.6 21.4.24 27.2 0 27.26l.15.65Z" fill="#FDFDFD"/></g></g></svg><svg fill="none" viewBox="0 0 50 50" id="loyalty" xmlns="http://www.w3.org/2000/svg"><defs><clipPath id="ea"><path transform="translate(7 7)" fill="#fff" fill-opacity="0" d="M0 0h36v36H0z"/></clipPath></defs><rect rx="4" width="50" height="50" fill="#F3F1E1"/><path fill="none" d="M7 7h36v36H7z"/><g clip-path="url(#ea)"><path d="m33.3 16.44-7.25-4.61V8.05C26.05 7.47 25.58 7 25 7c-.59 0-1.06.47-1.06 1.05v3.78l-7.25 4.61a1.058 1.058 0 0 0-.48.89v24.61c0 .58.47 1.06 1.05 1.06h15.47c.58 0 1.05-.48 1.05-1.06V17.33c0-.36-.18-.7-.48-.89ZM25 24.29c-1.94 0-3.52-1.58-3.52-3.51 0-1.58 1.04-2.91 2.46-3.36v.9c0 .58.47 1.05 1.06 1.05.58 0 1.05-.47 1.05-1.05v-.9c1.42.45 2.46 1.78 2.46 3.36 0 1.93-1.58 3.51-3.51 3.51Z" fill="#F2BE22"/></g></svg><svg fill="none" viewBox="0 0 32 32" id="pinterest" xmlns="http://www.w3.org/2000/svg"><defs><clipPath id="fa"><path fill="#fff" fill-opacity="0" d="M0 0h32v32H0z"/></clipPath></defs><path fill="none" d="M0 0h32v32H0z"/><g clip-path="url(#fa)"><path d="M12.05 28.71c1.28.39 2.57.62 3.95.62 3.53 0 6.92-1.41 9.42-3.91s3.91-5.89 3.91-9.43c0-1.75-.35-3.48-1.02-5.1-.67-1.62-1.65-3.09-2.89-4.32-1.23-1.24-2.7-2.22-4.32-2.89A13.34 13.34 0 0 0 16 2.66a13.352 13.352 0 0 0-9.43 3.91c-2.5 2.5-3.91 5.89-3.91 9.42 0 5.67 3.56 10.54 8.59 12.46-.12-1.04-.24-2.76 0-3.95l1.53-6.59s-.38-.77-.38-2c0-1.84 1.14-3.21 2.45-3.21 1.15 0 1.68.84 1.68 1.92 0 1.15-.76 2.79-1.15 4.36-.22 1.31.7 2.45 2.03 2.45 2.37 0 4.21-2.53 4.21-6.1 0-3.2-2.29-5.39-5.58-5.39-3.76 0-5.98 2.8-5.98 5.75 0 1.14.38 2.3.99 3.06.12.08.12.19.08.39l-.39 1.45c0 .23-.14.31-.37.15-1.71-.75-2.7-3.17-2.7-5.13 0-4.22 2.99-8.04 8.75-8.04 4.59 0 8.16 3.29 8.16 7.66 0 4.59-2.84 8.27-6.9 8.27-1.3 0-2.56-.69-3.02-1.51l-.89 3.16c-.31 1.15-1.15 2.68-1.72 3.6v-.04Z" fill="#FFF"/></g></svg><svg fill="none" viewBox="0 0 50 50" id="play" xmlns="http://www.w3.org/2000/svg"><defs><clipPath id="ga"><path transform="translate(14 14)" fill="#fff" fill-opacity="0" d="M0 0h22v22H0z"/></clipPath></defs><rect rx="25" width="50" height="50" fill="#FDFDFD" fill-opacity=".6"/><path fill="none" d="M14 14h22v22H14z"/><g clip-path="url(#ga)"><path d="M22.24 17.65a1.831 1.831 0 0 0-1.83.01c-.28.16-.51.39-.67.67-.16.28-.24.59-.24.91v11.51c0 .32.08.64.24.91.16.28.39.51.67.68a1.858 1.858 0 0 0 1.83 0l10.07-5.75c.28-.16.51-.4.67-.68a1.803 1.803 0 0 0 0-1.83c-.16-.28-.39-.52-.67-.68l-10.07-5.75Z" fill="#1A3E3E"/></g></svg><svg fill="none" viewBox="0 0 50 50" id="safety" xmlns="http://www.w3.org/2000/svg"><defs><clipPath id="ha"><path transform="translate(6 7)" fill="#fff" fill-opacity="0" d="M0 0h36v36H0z"/></clipPath></defs><rect rx="4" width="50" height="50" fill="#E3E6EE"/><path fill="none" d="M6 7h36v36H6z"/><g clip-path="url(#ha)"><path d="M38.4 14.06c-.07-.32-.19-.62-.35-.89 0 0-3.9-6.17-14.06-6.17-10.14 0-14.05 6.17-14.05 6.17-.14.22-.3.62-.35.89 0 0-.76 4 .49 9.74 1.15 5.27 4.33 12.83 12.97 18.89.28.2.61.3.95.3.33 0 .66-.1.94-.3 8.63-6.06 11.81-13.62 12.96-18.89 1.26-5.74.5-9.74.5-9.74Zm-3.82 9.01c-.04.15-.08.31-.11.47H23.99v15.63c-6.73-5.11-9.42-11.2-10.47-15.63h10.47V10.4c7.23 0 10.45 3.64 11.09 4.47.1.76.43 3.92-.5 8.2Z" fill="#6276AA"/></g></svg><svg fill="none" viewBox="0 0 32 32" id="skype" xmlns="http://www.w3.org/2000/svg"><defs><clipPath id="ia"><path fill="#fff" fill-opacity="0" d="M0 0h32v32H0z"/></clipPath></defs><path fill="none" d="M0 0h32v32H0z"/><g clip-path="url(#ia)"><path d="M24 8c2.76 2.72 3.8 6.52 3.14 10.06.55.96.86 2.08.86 3.27 0 1.77-.71 3.46-1.96 4.71A6.662 6.662 0 0 1 21.33 28c-1.19 0-2.31-.31-3.27-.86-3.54.66-7.34-.38-10.06-3.14-2.76-2.72-3.81-6.52-3.15-10.07-.55-.96-.85-2.08-.85-3.27 0-1.77.7-3.46 1.95-4.71A6.652 6.652 0 0 1 10.66 4c1.19 0 2.31.3 3.27.85C17.48 4.19 21.28 5.23 24 8Zm-7.95 14.87c3.82 0 5.73-1.83 5.73-4.31 0-1.59-.74-3.28-3.64-3.94l-2.65-.58c-1.01-.23-2.16-.54-2.16-1.48 0-.96.8-1.63 2.27-1.63 2.97 0 2.69 2.04 4.17 2.04.77 0 1.44-.45 1.44-1.24 0-1.83-2.92-3.2-5.4-3.2-2.68 0-5.55 1.14-5.55 4.19 0 1.46.52 3.02 3.4 3.74l3.59.91c1.08.26 1.35.87 1.35 1.42 0 .91-.91 1.81-2.55 1.81-3.21 0-2.77-2.47-4.49-2.47-.78 0-1.34.53-1.34 1.29 0 1.48 1.78 3.45 5.83 3.45Z" fill="#FFF"/></g></svg><svg fill="none" viewBox="0 0 24 24" id="star" xmlns="http://www.w3.org/2000/svg"><defs><clipPath id="ja"><path fill="#fff" fill-opacity="0" d="M0 0h24v24H0z"/></clipPath></defs><path fill="none" d="M0 0h24v24H0z"/><g clip-path="url(#ja)"><path d="m12 17.27 4.15 2.51c.76.46 1.69-.22 1.49-1.08l-1.1-4.72 3.66-3.18c.68-.58.32-1.68-.56-1.75l-4.83-.41-1.89-4.46c-.34-.81-1.5-.81-1.84 0L9.19 8.63l-4.83.41c-.88.07-1.24 1.17-.57 1.75l3.67 3.18-1.1 4.72c-.2.85.73 1.54 1.49 1.08l4.15-2.5Z" fill="#F2BE22"/></g></svg><svg fill="none" viewBox="0 0 32 32" id="telegram" xmlns="http://www.w3.org/2000/svg"><defs><clipPath id="ka"><path fill="#fff" fill-opacity="0" d="M0 0h32v32H0z"/></clipPath></defs><path fill="none" d="M0 0h32v32H0z"/><g clip-path="url(#ka)"><path d="M16 2.66c-7.37 0-13.34 5.97-13.34 13.33S8.63 29.33 16 29.33c7.36 0 13.33-5.98 13.33-13.34 0-7.36-5.97-13.33-13.33-13.33Zm6.18 9.07c-.2 2.1-1.06 7.22-1.5 9.58-.19 1-.56 1.34-.91 1.38-.77.06-1.36-.51-2.11-1-1.17-.78-1.84-1.26-2.97-2-1.32-.87-.47-1.35.29-2.12.2-.2 3.62-3.31 3.68-3.59.01-.04.01-.08 0-.13-.01-.04-.04-.08-.06-.11-.08-.07-.19-.04-.28-.03-.12.03-1.99 1.27-5.63 3.72-.53.36-1.01.55-1.44.54-.48-.02-1.39-.27-2.07-.5-.84-.26-1.49-.41-1.44-.88.03-.24.36-.48.99-.73 3.89-1.69 6.48-2.81 7.77-3.35 3.71-1.54 4.47-1.81 4.98-1.81.1 0 .36.03.52.16.13.11.17.25.18.36-.01.08.02.32 0 .51Z" fill="#FFF"/></g></svg><svg fill="none" viewBox="0 0 32 32" id="vk" xmlns="http://www.w3.org/2000/svg"><defs><clipPath id="la"><path fill="#fff" fill-opacity="0" d="M0 0h32v32H0z"/></clipPath></defs><path fill="none" d="M0 0h32v32H0z"/><g clip-path="url(#la)"><path d="M16.36 3C8.98 3 3 8.98 3 16.36c0 7.37 5.98 13.36 13.36 13.36 7.37 0 13.36-5.99 13.36-13.36C29.72 8.98 23.73 3 16.36 3Zm5.13 15.07s1.18 1.16 1.48 1.71c0 .01.01.02.01.02.12.2.15.36.09.47-.1.19-.43.29-.55.3h-2.08c-.15 0-.45-.04-.82-.29-.28-.2-.56-.53-.83-.84-.41-.47-.76-.88-1.11-.88-.05 0-.09.01-.13.02-.27.09-.61.47-.61 1.49 0 .31-.25.5-.43.5h-.96c-.32 0-2.02-.12-3.52-1.7-1.84-1.94-3.5-5.84-3.51-5.87-.11-.26.11-.39.35-.39h2.1c.28 0 .38.17.44.32.08.18.35.88.8 1.67.74 1.29 1.19 1.81 1.55 1.81.06 0 .13-.01.19-.05.47-.26.38-1.94.36-2.28 0-.07 0-.75-.24-1.08-.17-.24-.47-.33-.64-.36.07-.1.16-.18.27-.24.33-.16.91-.18 1.48-.18h.33c.62 0 .78.04 1.01.1.46.11.47.41.43 1.42-.01.29-.03.62-.03 1v.27c-.01.51-.03 1.1.33 1.34.05.03.11.05.16.05.13 0 .51 0 1.54-1.77.32-.58.6-1.17.83-1.78.02-.03.08-.15.16-.19.05-.03.11-.04.17-.04h2.48c.27 0 .45.04.49.15.06.16-.01.67-1.15 2.2l-.5.67c-1.03 1.34-1.03 1.41.06 2.43Z" fill="#FFF"/></g></svg></svg>