<svg width="24" height="24" fill="none" xmlns="http://www.w3.org/2000/svg"><defs><clipPath id="a"><path fill="#fff" fill-opacity="0" d="M0 0h24v24H0z"/></clipPath></defs><path d="M0 0h24v24H0z"/><g clip-path="url(#a)"><path d="M21 21l-4.35-4.35m1.74-2.59c.4-.97.61-2.01.61-3.06 0-1.06-.21-2.1-.61-3.07-.41-.97-1-1.85-1.74-2.59a8.144 8.144 0 00-2.59-1.74C13.09 3.2 12.05 3 11 3c-1.06 0-2.1.2-3.07.6-.97.41-1.85 1-2.59 1.74A8 8 0 002.99 11c0 2.12.85 4.15 2.35 5.65A8 8 0 0011 19c2.12 0 4.15-.85 5.65-2.35.74-.74 1.33-1.62 1.74-2.59zM11 8v6m-3-3h6" stroke="#FFF" stroke-width="1.5" stroke-linejoin="round"/></g></svg>