<?xml version="1.0" standalone="no"?>
<!DOCTYPE svg PUBLIC "-//W3C//DTD SVG 20010904//EN"
 "http://www.w3.org/TR/2001/REC-SVG-20010904/DTD/svg10.dtd">
<svg version="1.0" xmlns="http://www.w3.org/2000/svg"
 width="260.000000pt" height="260.000000pt" viewBox="0 0 260.000000 260.000000"
 preserveAspectRatio="xMidYMid meet">
<metadata>
Created by potrace 1.14, written by Peter Selinger 2001-2017
</metadata>
<g transform="translate(0.000000,260.000000) scale(0.100000,-0.100000)"
fill="#000000" stroke="none">
<path d="M0 2386 c0 -218 1 -227 38 -232 6 -1 10 2 6 7 -8 13 10 11 24 -3 14
-14 52 -18 52 -5 0 5 8 3 17 -4 11 -9 14 -10 9 -2 -5 9 -2 11 8 7 9 -3 16 -9
16 -13 0 -4 9 -7 19 -7 11 0 17 4 15 8 -3 4 0 8 5 8 6 0 11 -5 11 -11 0 -8 5
-8 15 1 12 10 15 10 15 0 0 -8 8 -10 24 -6 14 3 28 2 31 -4 4 -7 13 -7 26 0
11 6 19 7 19 1 0 -5 9 -7 20 -4 11 3 26 1 33 -5 8 -7 18 -7 27 -2 20 13 33 12
24 -1 -5 -8 -1 -8 14 0 24 13 65 15 58 3 -3 -5 11 -9 32 -10 41 0 61 -4 78
-15 7 -4 15 0 18 9 5 13 9 14 21 4 8 -7 22 -10 30 -6 8 3 15 1 15 -4 0 -5 7
-6 17 -3 10 4 14 2 10 -4 -7 -11 54 -10 72 2 5 3 12 1 16 -4 3 -5 15 -8 27 -6
12 3 27 -3 35 -13 8 -9 12 -12 9 -6 -3 7 3 14 14 17 13 3 18 1 13 -6 -5 -9 -3
-9 8 -1 14 11 51 5 50 -9 -3 -24 1 -27 15 -12 12 12 19 13 30 4 10 -8 14 -8
14 0 0 6 5 11 11 11 5 0 8 -4 5 -9 -8 -13 37 0 46 13 5 8 8 7 8 -1 0 -7 9 -13
19 -13 10 0 21 -7 25 -15 3 -8 11 -15 18 -15 9 0 9 3 -2 10 -12 7 -12 12 -2
22 9 9 12 9 12 -1 0 -8 6 -11 15 -7 13 5 14 2 4 -17 -11 -19 -10 -20 3 -10 8
7 32 15 54 18 27 3 34 2 24 -5 -20 -13 5 -13 29 0 13 6 24 5 37 -6 11 -9 13
-12 5 -8 -9 5 -12 3 -7 -4 9 -15 12 -15 30 4 9 8 16 11 16 6 0 -6 15 -9 33 -7
17 1 44 -4 58 -11 15 -7 29 -10 33 -7 7 7 212 6 359 -3 68 -4 107 -3 107 3 0
7 110 9 305 8 l305 -2 0 293 0 294 -1300 0 -1300 0 0 -214z"/>
<path d="M1331 2024 c0 -11 3 -14 6 -6 3 7 2 16 -1 19 -3 4 -6 -2 -5 -13z"/>
<path d="M2566 1952 c-2 -4 4 -9 15 -9 10 -1 19 2 19 8 0 11 -27 12 -34 1z"/>
<path d="M2208 1933 c7 -3 16 -2 19 1 4 3 -2 6 -13 5 -11 0 -14 -3 -6 -6z"/>
<path d="M2340 1924 c0 -14 -3 -15 -12 -6 -7 7 -28 11 -47 11 l-36 -1 30 -8
c22 -6 25 -8 10 -10 -11 -1 -23 -2 -27 -1 -5 0 -8 -3 -8 -9 0 -6 30 -11 68
-12 96 -2 121 -4 129 -12 6 -6 -4 -8 -59 -9 -15 -1 -29 -6 -32 -13 -3 -8 3
-10 16 -6 12 3 19 1 16 -4 -4 -5 8 -9 25 -10 18 0 43 -2 57 -4 14 -1 44 1 68
5 40 7 42 7 42 -18 0 -24 -2 -25 -50 -21 -28 2 -49 0 -46 -5 3 -4 -17 -7 -44
-7 -26 1 -46 -2 -44 -6 2 -3 -40 -6 -94 -6 -54 0 -110 -6 -127 -12 -38 -16
-166 -21 -182 -8 -9 7 -13 7 -13 -3 0 -8 -6 -5 -15 7 -11 14 -15 15 -14 4 3
-29 -1 -35 -24 -35 -18 0 -23 5 -19 18 3 11 -2 18 -14 19 -82 6 -111 38 -36
38 34 0 35 1 16 15 -26 20 -60 19 -70 -2 -4 -10 -7 -21 -6 -24 2 -10 -117 -3
-131 9 -8 7 -32 9 -66 5 -40 -5 -56 -12 -68 -30 -19 -29 -14 -35 29 -38 18 -1
53 -5 77 -10 37 -7 40 -9 25 -18 -10 -6 -37 -10 -61 -8 -29 1 -58 -6 -92 -24
-28 -14 -61 -25 -74 -25 -14 0 -30 -7 -37 -15 -10 -12 -28 -14 -83 -10 -38 3
-75 9 -81 14 -20 16 -106 23 -122 10 -11 -9 -23 -9 -52 -1 -75 23 -183 33
-200 20 -8 -7 -38 -14 -66 -15 -28 -1 -89 -5 -136 -8 -47 -3 -105 0 -130 5
-25 6 -126 12 -226 14 -134 3 -189 8 -210 19 -16 8 -44 18 -62 22 l-32 7 0
-856 0 -856 1300 0 1300 0 0 959 -1 958 -67 6 c-37 3 -95 9 -129 13 -57 6 -63
5 -63 -12z m64 -2 c2 -4 -4 -8 -14 -8 -10 0 -16 4 -14 8 3 4 9 8 14 8 5 0 11
-4 14 -8z m-665 -201 c7 -5 9 -11 5 -14 -5 -3 -15 1 -22 9 -14 16 -5 18 17 5z
m-164 -181 c18 -11 40 -31 48 -43 37 -56 124 -140 171 -164 28 -14 84 -31 126
-37 72 -12 66 -13 -175 -19 -335 -9 -475 -9 -475 2 0 4 51 21 113 36 61 15
127 33 145 40 32 14 44 35 20 35 -7 0 -30 5 -51 11 -51 14 -60 40 -36 101 l19
48 -48 -19 c-26 -10 -101 -42 -167 -71 -66 -29 -158 -66 -205 -82 -100 -34
-302 -89 -308 -83 -2 2 16 9 39 15 142 35 206 61 252 101 26 22 47 45 47 50 0
5 -11 11 -25 15 -30 8 -32 20 -4 34 47 26 8 17 -75 -16 -48 -20 -89 -34 -91
-32 -7 7 208 88 231 88 12 0 39 -14 60 -31 67 -53 65 -53 161 -10 48 21 95 41
103 44 34 12 94 6 125 -13z m-755 -105 c-19 -7 -42 -13 -50 -13 -8 0 1 6 20
13 19 7 42 13 50 13 8 0 -1 -6 -20 -13z m-85 -24 c-11 -5 -36 -11 -55 -14 -35
-6 -34 -6 5 8 43 14 84 19 50 6z m0 -351 c0 -21 -5 -26 -32 -28 -27 -3 -33 -7
-33 -28 0 -13 -4 -24 -10 -24 -5 0 -10 25 -10 56 l0 55 43 -3 c37 -3 42 -6 42
-28z m110 3 l18 -26 14 26 c7 15 18 27 24 27 6 0 -2 -24 -19 -52 -21 -38 -36
-54 -53 -56 l-24 -2 22 16 22 16 -20 39 c-22 44 -11 53 16 12z m228 4 l27 28
0 -58 c0 -31 -4 -57 -10 -57 -5 0 -10 14 -10 32 0 30 -1 31 -17 15 -16 -15
-18 -15 -35 0 -17 15 -18 14 -18 -15 0 -18 -4 -32 -10 -32 -5 0 -10 26 -10 57
l0 57 28 -27 28 -27 27 27z m202 13 c-3 -5 -13 -10 -21 -10 -10 0 -14 -12 -14
-45 0 -25 -4 -45 -10 -45 -5 0 -10 20 -10 45 0 33 -4 45 -14 45 -8 0 -18 5
-21 10 -4 6 13 10 45 10 32 0 49 -4 45 -10z m105 -25 l0 -35 35 38 34 37 1
-57 c0 -32 -4 -58 -10 -58 -5 0 -10 14 -10 32 l0 32 -35 -34 -35 -34 0 57 c0
31 5 57 10 57 6 0 10 -16 10 -35z m235 25 c-3 -5 -17 -10 -31 -10 -34 0 -30
-16 6 -24 59 -11 46 -66 -16 -66 l-34 0 0 55 0 55 41 0 c24 0 38 -4 34 -10z
m170 0 c-3 -5 -17 -10 -31 -10 -13 0 -24 -4 -24 -10 0 -5 9 -10 20 -10 11 0
20 -4 20 -10 0 -5 -9 -10 -20 -10 -11 0 -20 -7 -20 -15 0 -9 9 -15 24 -15 14
0 28 -4 31 -10 4 -6 -10 -10 -34 -10 l-41 0 0 55 0 55 41 0 c24 0 38 -4 34
-10z m170 0 c-3 -5 -13 -10 -21 -10 -10 0 -14 -12 -14 -45 0 -25 -4 -45 -10
-45 -5 0 -10 20 -10 45 0 38 -3 45 -20 45 -11 0 -20 5 -20 10 0 6 23 10 51 10
31 0 48 -4 44 -10z"/>
<path d="M670 1060 c0 -5 11 -10 25 -10 14 0 25 5 25 10 0 6 -11 10 -25 10
-14 0 -25 -4 -25 -10z"/>
<path d="M1560 1015 c0 -11 7 -15 23 -13 12 2 22 8 22 13 0 6 -10 11 -22 13
-16 2 -23 -2 -23 -13z"/>
<path d="M2060 1855 c33 -19 45 -19 26 0 -8 8 -23 15 -33 15 -14 -1 -13 -4 7
-15z"/>
<path d="M2286 1860 c15 -14 47 -16 50 -2 1 7 0 8 -3 2 -2 -5 -10 -7 -16 -3
-17 11 -41 13 -31 3z"/>
<path d="M1363 1796 c-17 -18 -36 -35 -44 -38 -9 -3 -2 -11 20 -22 27 -14 45
-16 95 -10 33 4 53 9 44 12 -10 2 -18 8 -18 13 0 13 -50 79 -60 79 -4 0 -21
-15 -37 -34z m51 -12 c27 -10 18 -19 -22 -21 -34 -2 -36 -1 -18 13 23 16 20
16 40 8z"/>
</g>
</svg>
